<!--?xml version="1.0" standalone="no"?-->
              <svg id="sw-js-blob-svg" viewBox="0 0 100 100" xmlns="http://www.w3.org/2000/svg" version="1.1">
                    <defs> 
                        <linearGradient id="sw-gradient" x1="0" x2="1" y1="1" y2="0">
                            <stop id="stop1" stop-color="rgba(248, 117, 55, 1)" offset="0%"></stop>
                            <stop id="stop2" stop-color="rgba(251, 168, 31, 1)" offset="100%"></stop>
                        </linearGradient>
                    </defs>
                <path fill="url(#sw-gradient)" d="M19.8,-29.9C26.1,-26.7,31.9,-22,32.7,-16.1C33.5,-10.3,29.3,-3.4,29.2,4.9C29.1,13.1,33.2,22.7,31,29.1C28.9,35.6,20.7,38.9,13.2,37.8C5.7,36.8,-1,31.4,-8.2,28.8C-15.4,26.2,-23.1,26.5,-28.8,23.2C-34.6,19.8,-38.3,12.9,-38.3,6.1C-38.4,-0.7,-34.8,-7.5,-30,-12C-25.3,-16.4,-19.3,-18.5,-14.1,-22.2C-8.8,-25.9,-4.4,-31.1,1.2,-32.9C6.7,-34.7,13.5,-33.1,19.8,-29.9Z" width="100%" height="100%" transform="translate(50 50)" stroke-width="0" style="transition: all 0.3s ease 0s;"></path>
              </svg>