<?xml version="1.0" standalone="no"?>
<!DOCTYPE svg PUBLIC "-//W3C//DTD SVG 20010904//EN"
 "http://www.w3.org/TR/2001/REC-SVG-20010904/DTD/svg10.dtd">
<svg version="1.0" xmlns="http://www.w3.org/2000/svg"
 width="600.000000pt" height="360.000000pt" viewBox="0 0 600.000000 360.000000"
 preserveAspectRatio="xMidYMid meet">

<g transform="translate(0.000000,360.000000) scale(0.100000,-0.100000)"
fill="#000000" stroke="none">
<path d="M4355 3012 c-72 -44 -204 -220 -280 -371 -40 -81 -112 -262 -141
-353 -14 -45 -35 -78 -95 -146 -76 -88 -123 -132 -141 -132 -4 0 -13 12 -19
28 -10 24 -7 29 23 51 108 80 201 215 201 294 0 46 -34 87 -72 87 -84 0 -209
-141 -253 -283 -35 -116 -16 -209 52 -255 62 -42 139 -10 216 88 22 27 42 49
45 50 4 0 12 -20 18 -44 31 -123 125 -133 227 -24 23 24 56 64 74 91 18 26 37
47 40 47 4 0 10 -37 12 -82 8 -142 65 -214 149 -189 72 22 191 151 280 303 44
76 50 123 14 123 -14 0 -39 -29 -86 -97 -89 -131 -189 -238 -224 -238 -24 0
-38 101 -26 188 17 121 26 143 82 187 119 94 287 317 329 438 20 56 26 121 14
152 -11 28 -51 37 -92 19 -106 -43 -303 -325 -389 -554 -13 -36 -35 -76 -47
-90 -13 -14 -53 -65 -89 -115 -61 -84 -132 -155 -156 -155 -13 0 -14 99 -2
153 7 29 35 65 118 150 262 272 412 584 327 678 -22 24 -70 24 -109 1z m61
-115 c-12 -79 -93 -227 -195 -357 -66 -83 -124 -150 -128 -146 -14 14 103 259
184 386 53 81 132 174 141 165 2 -2 1 -24 -2 -48z m295 -95 c-11 -26 -34 -73
-53 -105 -36 -61 -179 -240 -186 -233 -6 7 64 141 113 216 54 84 123 170 135
170 5 0 1 -22 -9 -48z m-910 -491 c-22 -43 -81 -115 -88 -107 -8 7 36 84 68
121 39 44 47 39 20 -14z"/>
<path d="M4094 2926 c-10 -26 4 -48 28 -44 17 2 23 10 23 28 0 18 -6 26 -23
28 -13 2 -25 -3 -28 -12z"/>
<path d="M4866 2865 c-3 -9 1 -18 10 -22 19 -7 39 11 30 26 -10 16 -33 13 -40
-4z"/>
<path d="M4026 2854 c-7 -19 10 -44 29 -44 19 0 36 25 29 44 -3 9 -16 16 -29
16 -13 0 -26 -7 -29 -16z"/>
<path d="M4834 2775 c-8 -21 2 -45 19 -45 21 0 38 25 31 44 -8 20 -43 21 -50
1z"/>
<path d="M2809 2415 c-35 -47 -66 -85 -70 -85 -3 0 -10 19 -15 43 -8 35 -13
42 -34 42 -20 0 -35 -18 -86 -100 -34 -55 -66 -100 -71 -100 -4 0 -11 31 -14
68 -10 122 -46 117 -109 -14 -44 -93 -58 -164 -31 -164 13 0 47 69 65 130 5
17 8 18 15 5 5 -8 11 -32 15 -52 9 -48 37 -66 71 -44 13 8 44 49 70 91 43 68
65 86 65 51 0 -23 28 -39 55 -32 15 4 45 32 73 68 l47 61 3 -31 c4 -40 26 -59
47 -42 19 16 21 160 3 178 -22 22 -36 12 -99 -73z"/>
<path d="M4796 2411 c-36 -37 -44 -71 -17 -71 17 0 91 76 91 93 0 29 -34 19
-74 -22z"/>
<path d="M3562 2418 c-5 -7 -39 -76 -75 -153 -64 -139 -158 -308 -177 -320
-17 -10 -11 38 20 187 35 166 36 184 11 198 -46 24 -61 6 -106 -129 -51 -153
-174 -389 -197 -375 -9 6 -6 23 38 223 45 204 44 241 -8 241 -27 0 -52 -49
-88 -173 -29 -101 -41 -125 -118 -237 -46 -69 -99 -140 -116 -158 -40 -42 -68
-40 -77 8 -9 43 1 62 46 90 101 62 202 249 181 334 -9 37 -33 56 -72 56 -126
0 -229 -153 -280 -417 -5 -29 -126 -191 -131 -176 -3 7 15 68 38 135 23 68 49
142 57 165 13 39 13 45 -2 68 -21 32 -49 32 -118 0 l-53 -25 -7 53 c-9 58 -50
107 -91 107 -60 -1 -149 -84 -165 -155 -17 -81 14 -128 96 -143 l40 -7 -32
-108 c-33 -107 -93 -240 -105 -232 -4 2 -3 39 0 82 4 43 8 118 8 166 1 82 -1
90 -25 114 -22 21 -32 25 -68 21 -54 -6 -96 -37 -151 -111 -73 -96 -125 -231
-125 -321 0 -76 45 -136 102 -136 31 0 91 53 124 109 23 39 30 39 37 1 8 -39
41 -70 74 -70 71 0 173 188 252 466 19 63 24 72 57 88 20 9 38 15 40 13 2 -1
-15 -50 -38 -108 -36 -89 -42 -115 -43 -180 0 -62 4 -81 19 -98 42 -46 109
-11 181 93 21 31 42 56 46 56 3 0 14 -12 24 -26 26 -40 77 -57 127 -43 62 16
81 32 144 124 l59 84 21 -48 c12 -26 29 -51 39 -54 58 -23 100 7 165 117 25
41 48 76 51 76 4 0 10 -11 13 -25 4 -14 15 -34 26 -45 57 -57 131 7 227 194
84 162 153 320 160 365 8 44 -29 70 -55 39z m-776 -401 c-27 -56 -86 -122 -86
-96 0 24 45 112 76 148 23 28 30 31 32 17 2 -9 -8 -41 -22 -69z m-556 -47 c0
-49 -1 -50 -30 -50 -32 0 -36 9 -19 43 12 22 39 57 46 57 1 0 3 -22 3 -50z
m-229 -262 c-34 -117 -163 -332 -177 -295 -8 21 21 131 51 192 36 74 114 170
128 156 7 -7 7 -23 -2 -53z"/>
<path d="M4813 2310 c-35 -21 -43 -47 -18 -56 19 -8 100 38 100 56 0 23 -46
23 -82 0z"/>
<path d="M1706 2227 c-9 -12 -34 -80 -56 -149 l-41 -127 -42 -11 c-23 -6 -58
-15 -77 -21 -65 -17 -103 -11 -160 25 -56 35 -74 36 -91 5 -14 -28 12 -81 57
-115 34 -26 45 -29 118 -29 45 0 98 4 119 8 37 8 38 8 31 -20 -4 -15 -19 -64
-33 -108 -25 -78 -27 -81 -76 -104 -50 -25 -100 -30 -162 -16 -28 6 -34 4 -44
-18 -10 -21 -9 -31 5 -51 34 -53 101 -67 192 -40 20 5 19 -5 -34 -223 -59
-245 -61 -283 -18 -283 13 0 28 6 34 13 6 7 43 128 82 268 39 139 78 270 87
290 10 24 35 51 74 78 60 43 72 67 44 91 -9 7 -27 10 -44 7 l-28 -6 23 82 c13
45 24 85 24 89 0 12 177 99 270 132 88 32 105 51 79 83 -20 23 -107 12 -207
-27 -46 -18 -85 -30 -88 -28 -2 3 6 48 18 100 18 80 20 99 9 112 -19 23 -48
20 -65 -7z"/>
<path d="M4762 2191 c-25 -15 -9 -46 25 -49 41 -4 73 13 73 38 0 17 -7 20 -42
20 -24 0 -49 -4 -56 -9z"/>
<path d="M1115 2131 c-69 -43 -106 -113 -79 -148 14 -17 16 -16 37 12 12 17
44 52 70 78 66 66 47 105 -28 58z"/>
<path d="M1225 2071 c-79 -36 -135 -117 -135 -196 0 -93 67 -166 184 -200 70
-20 109 -14 104 17 -2 17 -14 25 -50 34 -134 34 -195 136 -135 225 37 56 81
79 148 79 53 0 59 2 59 20 0 41 -104 54 -175 21z"/>
<path d="M2527 2083 c-13 -12 -7 -41 10 -47 21 -8 48 17 40 38 -6 16 -38 22
-50 9z"/>
<path d="M4171 1986 c-16 -19 -6 -36 20 -36 15 0 20 6 17 22 -4 27 -21 33 -37
14z"/>
<path d="M3486 1938 c-7 -13 -26 -60 -40 -105 -15 -45 -33 -86 -39 -91 -7 -5
-49 -24 -95 -41 -81 -31 -84 -31 -117 -15 -44 21 -65 13 -65 -24 0 -30 30 -65
65 -76 11 -3 53 3 93 14 39 11 76 20 81 20 26 0 -82 -258 -175 -417 -83 -141
-85 -132 -19 116 41 157 25 219 -55 208 -19 -3 -42 -8 -50 -11 -12 -5 -19 5
-28 39 -18 68 -50 95 -111 95 -42 0 -56 -5 -86 -31 -69 -61 -86 -143 -41 -195
20 -24 32 -28 90 -32 36 -2 66 -8 66 -12 0 -53 -118 -350 -139 -350 -5 0 -1
44 9 98 26 150 9 254 -45 268 -44 11 -92 -15 -153 -82 -69 -75 -116 -163 -138
-263 -48 -214 84 -291 196 -114 l27 42 12 -40 c27 -90 100 -70 162 46 55 101
118 264 138 357 16 73 20 83 45 91 15 5 30 7 33 3 3 -3 -14 -74 -38 -158 -49
-172 -55 -243 -25 -277 11 -13 31 -21 50 -21 40 0 108 73 156 165 33 66 35 67
45 43 47 -115 131 -83 210 80 21 45 42 82 45 82 3 0 12 -16 19 -35 27 -75 87
-82 154 -17 43 41 44 37 17 -43 -28 -81 -61 -134 -114 -183 -42 -38 -50 -42
-99 -42 -82 0 -125 -42 -74 -74 35 -22 91 -28 144 -15 70 18 156 107 212 219
41 83 105 287 152 483 26 110 22 132 -27 132 -26 0 -31 -7 -74 -102 -55 -123
-108 -215 -160 -274 -37 -41 -39 -42 -40 -19 0 14 11 83 25 154 28 139 25 160
-22 154 -19 -2 -35 -23 -74 -98 -115 -217 -159 -296 -173 -315 -15 -20 -15
-19 -16 5 0 51 89 380 111 406 6 7 60 34 120 59 92 39 118 46 162 43 49 -3 52
-2 55 23 5 39 -22 54 -92 53 -44 0 -83 -9 -138 -31 -43 -17 -78 -28 -78 -24 0
4 5 33 11 65 8 43 7 61 -2 72 -17 21 -47 17 -63 -8z m-522 -400 c12 -45 7 -56
-26 -61 -61 -9 -74 11 -37 57 25 32 55 34 63 4z m-208 -295 c-7 -55 -59 -163
-118 -243 l-40 -55 4 56 c5 63 49 165 104 240 46 63 59 63 50 2z"/>
<path d="M1907 1930 c-66 -25 -139 -86 -135 -113 5 -33 24 -31 65 6 21 19 60
48 87 64 80 47 69 75 -17 43z"/>
<path d="M3221 1747 c-9 -11 -8 -17 4 -27 12 -10 16 -9 21 5 9 23 -10 40 -25
22z"/>
<path d="M3784 1715 c-4 -10 -1 -21 7 -26 20 -12 34 -5 34 17 0 24 -33 31 -41
9z"/>
<path d="M2234 1475 c-8 -20 4 -35 26 -35 23 0 32 13 24 34 -8 20 -43 21 -50
1z"/>
<path d="M2295 1351 c-38 -10 -152 -46 -252 -80 -165 -56 -191 -63 -263 -63
-58 0 -84 -4 -95 -15 -20 -20 -19 -30 9 -58 56 -56 162 -42 408 53 149 58 257
92 292 92 22 0 21 -44 -3 -95 -22 -46 -214 -282 -218 -268 -2 5 15 63 37 128
46 132 48 160 11 160 -31 0 -48 -28 -111 -183 -94 -232 -185 -545 -178 -614 2
-17 11 -36 21 -42 38 -24 53 6 122 245 13 46 29 70 86 130 231 241 349 418
349 518 0 44 -35 89 -77 100 -47 13 -51 13 -138 -8z"/>
<path d="M1633 1325 c-14 -11 -16 -18 -7 -31 14 -24 26 -27 47 -11 11 7 16 19
12 29 -9 24 -30 29 -52 13z"/>
<path d="M1937 1324 c-16 -16 -7 -44 14 -44 15 0 20 5 17 22 -3 22 -19 33 -31
22z"/>
<path d="M2953 945 c-7 -20 2 -29 21 -22 9 4 13 13 10 22 -8 19 -23 19 -31 0z"/>
<path d="M3165 946 c-22 -7 -132 -59 -245 -115 -154 -76 -224 -105 -281 -117
-124 -25 -184 3 -209 97 -14 51 -42 67 -70 39 -39 -39 -17 -143 42 -196 42
-39 84 -54 150 -54 118 0 214 37 483 184 111 61 208 91 258 81 18 -4 53 -19
79 -34 38 -20 52 -24 65 -15 44 27 12 92 -61 125 -48 22 -150 24 -211 5z"/>
<path d="M1283 883 c-18 -7 -16 -38 3 -54 11 -9 20 -10 32 -3 23 15 25 29 7
48 -17 17 -22 18 -42 9z"/>
<path d="M1394 866 c-11 -29 1 -51 26 -51 19 0 26 6 28 24 5 35 -42 58 -54 27z"/>
<path d="M2694 825 c-4 -9 -2 -21 4 -27 15 -15 44 -1 40 19 -4 23 -36 29 -44
8z"/>
<path d="M3392 743 c-48 -17 -55 -46 -12 -51 32 -3 95 28 95 48 0 21 -32 22
-83 3z"/>
<path d="M2236 693 c-12 -13 -5 -57 14 -88 37 -60 193 -147 235 -131 31 11 14
37 -44 65 -76 36 -126 75 -151 116 -21 33 -43 49 -54 38z"/>
<path d="M2126 545 c-7 -19 36 -70 86 -101 42 -27 169 -60 193 -50 8 3 15 14
15 25 0 15 -11 23 -42 32 -86 23 -128 41 -170 74 -46 37 -73 44 -82 20z"/>
</g>
</svg>
